<svg width="25" height="25" viewBox="0 0 25 25" fill="none" xmlns="http://www.w3.org/2000/svg">
<path d="M8.40154 3.33789H15.944C18.8173 3.33789 21.1518 5.67245 21.1518 8.54576V16.0882C21.1518 17.4694 20.6032 18.7941 19.6265 19.7707C18.6498 20.7474 17.3252 21.2961 15.944 21.2961H8.40154C5.52823 21.2961 3.19366 18.9615 3.19366 16.0882V8.54576C3.19366 7.16455 3.74235 5.83991 4.71902 4.86324C5.69568 3.88658 7.02032 3.33789 8.40154 3.33789ZM8.22196 5.13371C7.36465 5.13371 6.54246 5.47427 5.93625 6.08048C5.33005 6.68668 4.98948 7.50888 4.98948 8.36618V16.2678C4.98948 18.0546 6.43512 19.5003 8.22196 19.5003H16.1236C16.9809 19.5003 17.8031 19.1597 18.4093 18.5535C19.0155 17.9473 19.356 17.1251 19.356 16.2678V8.36618C19.356 6.57934 17.9104 5.13371 16.1236 5.13371H8.22196ZM16.8868 6.48057C17.1845 6.48057 17.4699 6.59882 17.6804 6.80931C17.8909 7.0198 18.0092 7.30528 18.0092 7.60296C18.0092 7.90063 17.8909 8.18612 17.6804 8.39661C17.4699 8.60709 17.1845 8.72535 16.8868 8.72535C16.5891 8.72535 16.3036 8.60709 16.0931 8.39661C15.8826 8.18612 15.7644 7.90063 15.7644 7.60296C15.7644 7.30528 15.8826 7.0198 16.0931 6.80931C16.3036 6.59882 16.5891 6.48057 16.8868 6.48057ZM12.1728 7.82744C13.3635 7.82744 14.5054 8.30044 15.3473 9.14239C16.1893 9.98435 16.6623 11.1263 16.6623 12.317C16.6623 13.5077 16.1893 14.6496 15.3473 15.4916C14.5054 16.3335 13.3635 16.8065 12.1728 16.8065C10.9821 16.8065 9.84012 16.3335 8.99817 15.4916C8.15621 14.6496 7.68321 13.5077 7.68321 12.317C7.68321 11.1263 8.15621 9.98435 8.99817 9.14239C9.84012 8.30044 10.9821 7.82744 12.1728 7.82744ZM12.1728 9.62325C11.4583 9.62325 10.7732 9.90706 10.268 10.4122C9.76283 10.9174 9.47903 11.6026 9.47903 12.317C9.47903 13.0314 9.76283 13.7166 10.268 14.2217C10.7732 14.7269 11.4583 15.0107 12.1728 15.0107C12.8872 15.0107 13.5723 14.7269 14.0775 14.2217C14.5827 13.7166 14.8665 13.0314 14.8665 12.317C14.8665 11.6026 14.5827 10.9174 14.0775 10.4122C13.5723 9.90706 12.8872 9.62325 12.1728 9.62325Z" fill="#008080"/>
</svg>
