<svg width="25" height="25" viewBox="0 0 25 25" fill="none" xmlns="http://www.w3.org/2000/svg">
<path d="M19.0798 3.33789C19.609 3.33789 20.1166 3.54811 20.4908 3.92232C20.865 4.29652 21.0752 4.80404 21.0752 5.33324V19.3007C21.0752 19.8299 20.865 20.3374 20.4908 20.7116C20.1166 21.0858 19.609 21.2961 19.0798 21.2961H5.11236C4.58316 21.2961 4.07563 21.0858 3.70143 20.7116C3.32723 20.3374 3.117 19.8299 3.117 19.3007V5.33324C3.117 4.80404 3.32723 4.29652 3.70143 3.92232C4.07563 3.54811 4.58316 3.33789 5.11236 3.33789H19.0798ZM18.581 18.8019V13.5142C18.581 12.6516 18.2383 11.8243 17.6284 11.2144C17.0184 10.6044 16.1912 10.2618 15.3286 10.2618C14.4805 10.2618 13.4928 10.7806 13.014 11.5587V10.4513H10.2304V18.8019H13.014V13.8833C13.014 13.1151 13.6325 12.4866 14.4007 12.4866C14.7712 12.4866 15.1264 12.6337 15.3884 12.8957C15.6503 13.1576 15.7975 13.5129 15.7975 13.8833V18.8019H18.581ZM6.98799 8.88497C7.43252 8.88497 7.85884 8.70839 8.17317 8.39406C8.4875 8.07973 8.66409 7.65341 8.66409 7.20888C8.66409 6.28104 7.91583 5.5228 6.98799 5.5228C6.54082 5.5228 6.11196 5.70044 5.79576 6.01664C5.47956 6.33284 5.30192 6.7617 5.30192 7.20888C5.30192 8.13672 6.06015 8.88497 6.98799 8.88497ZM8.37476 18.8019V10.4513H5.6112V18.8019H8.37476Z" fill="#008080"/>
</svg>
