<svg width="24" height="25" viewBox="0 0 24 25" fill="none" xmlns="http://www.w3.org/2000/svg">
<path d="M10.2236 14.8821L14.8837 12.3166L10.2236 9.75117V14.8821ZM20.6034 8.18625C20.7201 8.58817 20.8009 9.12691 20.8548 9.81103C20.9177 10.4952 20.9446 11.0852 20.9446 11.5983L20.9985 12.3166C20.9985 14.1894 20.8548 15.5662 20.6034 16.447C20.3789 17.2166 19.8581 17.7126 19.05 17.9264C18.628 18.0376 17.8558 18.1146 16.6705 18.1659C15.5033 18.2257 14.4348 18.2514 13.4471 18.2514L12.0194 18.3027C8.25714 18.3027 5.91359 18.1659 4.98875 17.9264C4.18063 17.7126 3.65984 17.2166 3.43536 16.447C3.31864 16.0451 3.23782 15.5063 3.18395 14.8222C3.1211 14.1381 3.09416 13.548 3.09416 13.035L3.04028 12.3166C3.04028 10.4438 3.18395 9.06705 3.43536 8.18625C3.65984 7.41661 4.18063 6.92062 4.98875 6.70683C5.41076 6.59566 6.18297 6.5187 7.36821 6.46739C8.53549 6.40753 9.604 6.38188 10.5917 6.38188L12.0194 6.33057C15.7816 6.33057 18.1252 6.46739 19.05 6.70683C19.8581 6.92062 20.3789 7.41661 20.6034 8.18625Z" fill="#008080"/>
</svg>
